inDegrees=yes
name=ik_S44_A03_T01
DataType=double
version=3
OpenSimVersion=4.3-2021-08-27-4bc7ad9
endheader
time	pelvis_tilt	pelvis_list	pelvis_rotation	pelvis_tx	pelvis_ty	pelvis_tz	hip_flexion_r	hip_adduction_r	hip_rotation_r	knee_angle_r	knee_angle_r_beta	ankle_angle_r	subtalar_angle_r	mtp_angle_r	hip_flexion_l	hip_adduction_l	hip_rotation_l	knee_angle_l	knee_angle_l_beta	ankle_angle_l	subtalar_angle_l	mtp_angle_l	lumbar_extension	lumbar_bending	lumbar_rotation	arm_flex_r	arm_add_r	arm_rot_r	elbow_flex_r	pro_sup_r	wrist_flex_r	wrist_dev_r	arm_flex_l	arm_add_l	arm_rot_l	elbow_flex_l	pro_sup_l	wrist_flex_l	wrist_dev_l
0	0	0	0	0	0.9399999999999999	0	0	0	0	0	0	0	0	0	0	0	0	0	0	0	0	0	0	0	0	0	0	0	0	89.99999999963507	0	0	0	0	0	0	89.99999999869995	0	0
0.02	0.6459964703806627	-0.6787690849173723	-78.10494402398217	0	0.9399999999999999	0	-0.7673954918855431	-1.117546552393208	-2.845808785556083	-0.5019552750850478	-0.008760772247987943	0	0	0	2.955194890910953	-0.1760454557619487	-3.709486990931317	5.651279630738707	0.09863343650727979	0	0	0	0	0	0	1.611839942456783	-1.611839942456783	0.2866677143227249	7.943987460270303	89.7133323021514	0	0	1.611839942456783	-1.611839942456783	0.2866677143227249	7.943987460270303	89.71333230127007	0	0
0.04	0.6546239379505606	-0.7116280653750031	-78.04546050163249	0	0.9399999999999999	0	-0.7859052354436536	-1.093855801744848	-2.810235494022361	-0.4781917997692092	-0.008346021362010162	0	0	0	2.946819109309277	-0.1547437067767675	-3.668093309476513	5.659594660021035	0.09877856114565615	0	0	0	0	0	0	1.613257972993231	-1.613257972993231	0.2869449019344615	7.956699955820934	89.71305511455627	0	0	1.613257972993231	-1.613257972993231	0.2869449019344615	7.956699955820934	89.71305511367495	0	0
0.06	0.6467091896517573	-0.7342577453822323	-77.99849096821788	0	0.9399999999999999	0	-0.7860597770849854	-1.083167577829018	-2.814703361777058	-0.3421987802267272	-0.005972495411264857	0	0	0	2.939943106627883	-0.1517802132447848	-3.64599965854123	5.72646663960199	0.09994569736667024	0	0	0	0	0	0	1.798169792329497	-1.798169792329497	0.3212603100507618	8.453664397227367	89.67873970846092	0	0	1.798169792329497	-1.798169792329497	0.3212603100507618	8.453664397227367	89.67873970758606	0	0
0.08	0.6322811103538176	-0.7263660361618801	-77.85550569180769	0	0.9399999999999999	0	-0.7936695138399069	-1.07532342661522	-2.931825323971935	-0.3622674952602057	-0.006322760565243542	0	0	0	2.943343068215585	-0.1543182952903967	-3.530843016374623	5.715781185126743	0.0997592010040052	0	0	0	0	0	0	1.801298095562768	-1.801298095562768	0.3218711103843628	8.481096703076002	89.67812890816386	0	0	1.801298095562768	-1.801298095562768	0.3218711103843628	8.481096703076002	89.67812890728908	0	0
0.1	0.6195578974119936	-0.6941859949342211	-77.83788551138888	0	0.9399999999999999	0	-0.804203918840891	-1.108176385115132	-2.960209199223637	-0.4111696448675195	-0.007176264087194019	0	0	0	2.977496626090953	-0.1616312515310989	-3.543099470953406	5.748974068497294	0.1003385261070518	0	0	0	0	0	0	1.907559054574928	-1.907559054574928	0.3414047786525227	8.708276372938185	89.65859524104309	0	0	1.907559054574928	-1.907559054574928	0.3414047786525227	8.708276372938185	89.65859524017193	0	0
0.12	0.5838422188162524	-0.6035034822616621	-77.82269048168686	0	0.9399999999999999	0	-0.6311034069342828	-1.094687898566001	-2.986104551578087	-0.169315668875985	-0.002955115897102424	0	0	0	3.076639344036287	-0.1831789498623027	-3.541938313743187	5.788105074412988	0.101021490999898	0	0	0	0	0	0	2.795579616077713	-2.795579616077712	0.5041965343787429	12.08866454601026	89.49580349487643	0	0	2.795579616077713	-2.795579616077712	0.5041965343787429	12.08866454601026	89.49580349403575	0	0
0.14	0.5609911192991605	-0.5606241694886502	-77.83800756885425	0	0.9399999999999999	0	-0.6572196237176133	-1.07872452772667	-2.981314611764394	-0.406821541196171	-0.007100375361910935	0	0	0	3.092897892727518	-0.1851643030940767	-3.539305907611569	5.677020017852924	0.09908269101316079	0	0	0	0	0	0	3.225741467242075	-3.225741467242074	0.5831639948742198	13.39741763163546	89.41683603902089	0	0	3.225741467242075	-3.225741467242074	0.5831639948742198	13.39741763163546	89.41683603819502	0	0
0.16	0.5701736084625527	-0.5364751076709149	-77.8599661873363	0	0.9399999999999999	0	-0.6624943458809295	-1.102924895272722	-2.994568824864805	-0.4709622664919361	-0.008219842202939249	0	0	0	3.06877033180378	-0.1929497130606152	-3.546709369557696	5.676926985224291	0.09908106728747935	0	0	0	0	0	0	3.332504567411793	-3.332504567411793	0.6025603013068072	13.67922776849383	89.39743973372501	0	0	3.332504567411793	-3.332504567411793	0.6025603013068072	13.67922776849383	89.39743973290275	0	0
0.18	0.5667184816031939	-0.4982192570270839	-77.88596287465847	0	0.9399999999999999	0	-0.6526561887352669	-1.126521335202978	-3.000392490199302	-0.5131915838883454	-0.008956882832376311	0	0	0	3.086590414624919	-0.1703941963870502	-3.575088004668144	5.596945866095915	0.09768513341925937	0	0	0	0	0	0	3.463754630821493	-3.463754630821493	0.6262962290337759	14.00692473025074	89.3737038073874	0	0	3.463754630821493	-3.463754630821493	0.6262962290337759	14.00692473025074	89.37370380656961	0	0
0.2	0.5529497036578919	-0.412395928260492	-77.91807895242495	0	0.9399999999999999	0	-0.5638472844661662	-1.147634429090343	-2.993490299535067	-0.5569062529816873	-0.009719847739474931	0	0	0	3.195381489013994	-0.2064107606959591	-3.523908557989354	5.672244515452272	0.09899934277283252	0	0	0	0	0	0	3.59897500537852	-3.59897500537852	0.6507543687841286	14.36100738294559	89.34924566906895	0	0	3.59897500537852	-3.59897500537852	0.6507543687841286	14.36100738294559	89.34924566825572	0	0
0.22	0.5546058090036022	-0.3597160054494123	-77.9617322801239	0	0.9399999999999999	0	-0.5112430847734225	-1.158251257085512	-2.947425357749342	-0.5459688723699671	-0.009528954436256622	0	0	0	3.232155439145057	-0.173098275230218	-3.507282250782655	5.669516084332439	0.09895172266637756	0	0	0	0	0	0	3.741059435099686	-3.741059435099686	0.6764573105487992	14.75933976004848	89.32354272880927	0	0	3.741059435099686	-3.741059435099686	0.6764573105487992	14.75933976004848	89.32354272800085	0	0
0.24	0.5507459455459287	-0.2909322090198652	-78.01959570976524	0	0.9399999999999999	0	-0.4425512668532704	-1.165849976290253	-2.899816905871057	-0.5156846782093963	-0.009000395536841422	0	0	0	3.337741659600392	-0.165457087280511	-3.509403494132337	5.702798061102095	0.09953260274258033	0	0	0	0	0	0	3.88855099904114	-3.88855099904114	0.7030970626808504	15.17604210160162	89.29690297823656	0	0	3.88855099904114	-3.88855099904114	0.7030970626808504	15.17604210160162	89.29690297743316	0	0
0.26	0.5573113965659419	-0.2458664375244836	-78.06077585282371	0	0.9399999999999999	0	-0.4406023840054731	-1.220261086355969	-3.048848689883422	-0.5380272302335581	-0.009390346632961169	0	0	0	3.363895621195305	-0.1420317066127262	-3.523221232281455	5.675506078714752	0.09905626779052489	0	0	0	0	0	0	3.890183505490282	-3.890183505490282	0.7034085004843666	15.18682686230906	89.29659154045159	0	0	3.890183505490282	-3.890183505490282	0.7034085004843666	15.18682686230906	89.29659153964822	0	0
0.28	0.6041784764587445	-0.1836841745799165	-78.04483350545532	0	0.9399999999999999	0	-0.3956598233164383	-1.277446828521982	-3.071691974576618	-0.604845006765478	-0.01055653683230497	0	0	0	3.413272012201816	-0.066846756267518	-3.483903922269866	5.672408919528672	0.0990022121652694	0	0	0	0	0	0	4.035618866407774	-4.035618866407774	0.72958746800944	15.58808584955722	89.27041257445762	0	0	4.035618866407774	-4.035618866407774	0.72958746800944	15.58808584955722	89.27041257365914	0	0
0.3	0.5875477654651066	-0.06966648318315267	-78.06533722510638	0	0.9399999999999999	0	-0.2819888646071806	-1.28502102121551	-3.064934117899328	-0.6691181721575958	-0.0116783151890763	0	0	0	3.532666951164006	-0.05764571436362124	-3.504571243195848	5.704280162341177	0.09955847028905018	0	0	0	0	0	0	4.139465032907562	-4.139465032907562	0.7481474225219968	15.86706942328019	89.25185262102865	0	0	4.139465032907562	-4.139465032907562	0.7481474225219968	15.86706942328019	89.25185262023372	0	0
0.32	0.5685592963533541	-0.03558534991366017	-78.10105110887652	0	0.9399999999999999	0	-0.3215758353188083	-1.343107806611136	-3.239354616893606	-0.6819617474685811	-0.01190247786598084	0	0	0	3.561027878735429	-0.08011858413271876	-3.548393995555876	5.694034709022773	0.09937965339528466	0	0	0	0	0	0	4.140850042170399	-4.140850042170399	0.7484101630484578	15.87591606035816	89.25158988051777	0	0	4.140850042170399	-4.140850042170399	0.7484101630484578	15.87591606035816	89.25158987972291	0	0
0.34	0.5649718332987254	0.04555561226401997	-78.11952376206922	0	0.9399999999999999	0	-0.2805455079501488	-1.383177632510703	-3.318033403289335	-0.7180441903394927	-0.01253223529624101	0	0	0	3.604583729549606	-0.07630510264141493	-3.540229369538308	5.677590686845396	0.09909265106601847	0	0	0	0	0	0	4.14258104043453	-4.14258104043453	0.7487389796442244	15.88702438982117	89.25126106394153	0	0	4.14258104043453	-4.14258104043453	0.7487389796442244	15.88702438982117	89.25126106314671	0	0
0.36	0.5318630542451938	0.2617663999654614	-78.18116852155177	0	0.9399999999999999	0	-0.05695699277062339	-1.388323874675067	-3.239623776364724	-0.8072148986403851	-0.01408855775242702	0	0	0	3.80332581716323	-0.0721976224679171	-3.592895850469668	5.663815284513271	0.09885222493953598	0	0	0	0	0	0	4.233063053898769	-4.233063053898769	0.7648379166155158	16.13669789475329	89.23516212790922	0	0	4.233063053898769	-4.233063053898769	0.7648379166155158	16.13669789475329	89.23516212711739	0	0
0.3800000000000001	0.5147241162003309	0.3222684305863099	-78.19878690445587	0	0.9399999999999999	0	-0.08594857033436633	-1.425782954221066	-3.238460536908152	-0.8172942272926765	-0.01426447522380011	0	0	0	3.811587818758763	-0.08920534658505531	-3.612612680889521	5.654313195246147	0.09868638219600626	0	0	0	0	0	0	4.233591872404502	-4.233591872404502	0.76493452913631	16.13959588077056	89.2350655153941	0	0	4.233591872404502	-4.233591872404502	0.76493452913631	16.13959588077056	89.23506551460231	0	0
0.4000000000000001	0.5550595157791851	0.4308752543166776	-78.26690853690609	0	0.9399999999999999	0	-0.09656086092717152	-1.516891849096216	-3.085025064704364	-1.136562974034593	-0.01983676605316246	0	0	0	3.865106433325601	-0.04878673012428522	-3.631782032290894	5.544220116633134	0.09676489549055221	0	0	0	0	0	0	4.307486128648959	-4.307486128648959	0.7782960203618304	16.37384734873266	89.22170402495118	0	0	4.307486128648959	-4.307486128648959	0.7782960203618304	16.37384734873266	89.22170402416187	0	0
